<svg width="33" height="32" viewBox="0 0 33 32" fill="none" xmlns="http://www.w3.org/2000/svg">
<path d="M20.9768 7.3486L14.7039 3.55515C14.1118 3.19298 13.4387 3.00156 12.7531 3.00037C10.7093 3.00037 8.83463 4.71231 8.83463 7.10508V21.3074L20.9768 13.967C23.4081 12.4947 23.4081 8.82002 20.9768 7.3486ZM12.3483 14.448V6.86799L18.6162 10.6567L12.3483 14.448Z" fill="#006774"/>
<path d="M24.3488 28.9845C24.3488 29.0274 12.4907 28.9661 12.4907 28.9661L11.4432 28.8426C9.7466 28.6441 8.44413 27.1234 8.50185 25.3347C8.50185 25.2918 8.50553 25.2519 8.50799 25.2104C8.55459 24.4366 8.82595 23.6962 9.2857 23.0885C9.4724 22.8462 9.70079 22.6426 9.95903 22.4883L18.978 17.0725C20.8413 15.9535 22.393 15.5621 23.1998 13.5342C23.4973 12.7757 23.6258 11.9562 23.5756 11.138L23.5444 10.5866L24.465 15.9205C24.5829 16.8264 24.4012 17.7538 23.921 18.5169C23.6325 18.9785 23.2474 19.3653 22.795 19.6479L12.3294 24.8944C12.319 24.9006 12.3088 24.9075 12.2991 24.915C12.0126 25.1293 12.1894 25.6069 12.5402 25.5868L21.2514 25.6404C22.9431 25.5418 24.3524 27.2113 24.3488 28.9845Z" fill="#006774"/>
</svg>
